<?xml version="1.0" encoding="UTF-8"?>
<svg width="996px" height="219px" viewBox="0 0 996 219" version="1.1" xmlns="http://www.w3.org/2000/svg" xmlns:xlink="http://www.w3.org/1999/xlink">
    <!-- Generator: Sketch 47.1 (45422) - http://www.bohemiancoding.com/sketch -->
    <title>Cently Logo Green</title>
    <desc>Created with Sketch.</desc>
    <defs>
        <path d="M85.3438894,170.693044 C122.732204,170.793141 155.233717,153.751272 174.649375,126.516033 L168.977367,5.48269266 C167.877161,3.76995258 166.729223,2.09224552 165.535491,0.45155821 L1.43814155,0.45155821 C1.04224027,0.995696342 0.65137592,1.5439064 0.265619243,2.09611594 L0.265619243,124.590053 C18.8161898,151.14514 47.9555746,170.592947 85.3438894,170.693044 Z" id="path-1"></path>
        <path d="M177.565514,0.277245731 L47.3521408,39.0805802 C28.246393,44.7712073 -6.16322263,81.2054172 10.0618305,95.4047258 L22.5196975,121.38549 L88.3979805,121.38549 L108.341359,115.446154 C142.217368,105.358238 167.268702,80.4639498 177.565514,50.8900264 L177.565514,0.277245731 Z" id="path-3"></path>
    </defs>
    <g id="Approved-Designs" stroke="none" stroke-width="1" fill="none" fill-rule="evenodd">
        <g id="Cently-Logo" transform="translate(-100.000000, -863.000000)">
            <g id="Cently-Logo-Green" transform="translate(100.000000, 861.096062)">
                <g id="Cently_logo" fill="#0D736C">
                    <g id="Wordmark">
                        <g transform="translate(307.394763, 5.706948)">
                            <path d="M68.5435965,31.6825131 C80.6951261,31.6825131 91.518111,40.3834982 95.6927312,50.8646307 L123.795259,37.0229557 C115.440377,19.6209856 99.1114067,1.62563306 68.5435965,1.62563306 C29.6209047,1.62563306 0.000846206794,29.1121681 0.000846206794,69.8469958 C0.000846206794,110.382071 29.6209047,138.065421 68.5435965,138.065421 C99.1114067,138.065421 115.632184,119.676438 123.795259,102.668098 L95.6927312,88.8293608 C91.518111,99.3075558 80.6951261,108.008541 68.5435965,108.008541 C47.848199,108.008541 33.2285663,91.3997058 33.2285663,69.8469958 C33.2285663,48.2942857 47.848199,31.6825131 68.5435965,31.6825131" id="Fill-53"></path>
                            <polygon id="Fill-56" points="141.034466 132.311569 231.296524 132.311569 231.296524 103.850053 172.783588 103.850053 172.783588 82.4101911 230.00495 82.4101911 230.00495 53.9486753 172.783588 53.9486753 172.783588 34.2141926 231.296524 34.2141926 231.296524 5.75267691 141.034466 5.75267691"></polygon>
                            <polygon id="Fill-58" points="339.274706 75.3885375 287.681923 5.75267691 253.862038 5.75267691 253.862038 132.311569 286.728131 132.311569 286.728131 59.0704515 340.611718 132.311569 372.33099 132.311569 372.33099 5.75267691 339.274706 5.75267691"></polygon>
                            <polygon id="Fill-60" points="485.158562 5.75267691 383.613747 5.75267691 383.613747 34.2141926 418.454815 34.2141926 418.454815 132.311569 450.502951 132.311569 450.502951 34.2141926 485.158562 34.2141926"></polygon>
                            <polygon id="Fill-65" points="529.520468 5.75267691 496.441319 5.75267691 496.441319 132.311569 581.061999 132.311569 581.061999 103.850053 529.520468 103.850053"></polygon>
                            <polygon id="Fill-67" points="650.875282 5.75267691 623.467721 52.4293372 595.67863 5.75267691 558.496484 5.75267691 606.985032 81.2713922 606.985032 132.311569 639.950411 132.311569 639.950411 81.2713922 688.248193 5.75267691"></polygon>
                            <path d="M31.2918767,171.498445 C33.3967092,172.797172 35.0312887,174.64447 36.1956642,177.040397 C37.3600396,179.436323 37.9422186,182.224065 37.9422186,185.403706 C37.9422186,188.9864 37.3040609,192.154797 36.0277263,194.908993 C34.7513916,197.663188 32.9488759,199.790381 30.6201249,201.290634 C28.291374,202.790887 25.604394,203.541002 22.5591043,203.541002 C20.006435,203.541002 17.767285,202.981215 15.8415872,201.861623 C13.9158893,200.742031 12.4828333,199.174626 11.5423762,197.159361 L11.07215,203.070776 L5.63096107,203.070776 L9.39277068,155.71228 L14.8339596,155.71228 L13.2889306,175.19308 C14.4085224,173.446517 15.9199487,172.069439 17.8232547,171.061807 C19.7265608,170.054174 21.7977745,169.550365 24.0369581,169.550365 C26.7687621,169.550365 29.1870441,170.199719 31.2918767,171.498445 Z M29.6124974,195.412806 C31.4486279,192.994488 32.3666794,189.658155 32.3666794,185.403706 C32.3666794,181.821012 31.5158024,179.03327 29.8140229,177.040397 C28.1122433,175.047524 25.7163529,174.051102 22.6262795,174.051102 C19.4018551,174.051102 16.8716156,175.271439 15.0354851,177.712149 C13.1993546,180.152859 12.2813031,183.500388 12.2813031,187.754837 C12.2813031,191.427098 13.1209843,194.226035 14.800372,196.151733 C16.4797597,198.077431 18.9092374,199.040266 22.0888781,199.040266 C25.2685188,199.040266 27.7763668,197.831125 29.6124974,195.412806 Z M72.0522781,170.423643 L77.6278174,170.423643 L54.788259,215.162307 L49.2127197,215.162307 L55.6615362,202.60055 L44.3761074,170.423643 L49.9516466,170.423643 L58.8859445,197.092186 L72.0522781,170.423643 Z M124.016005,203.876878 C134.831208,203.876878 140.675448,197.562412 143.56398,191.852522 L133.622055,187.15026 C132.144201,190.710544 128.315216,193.666252 124.016005,193.666252 C116.693912,193.666252 111.521424,188.023537 111.521424,180.701444 C111.521424,173.312175 116.693912,167.736636 124.016005,167.736636 C128.315216,167.736636 132.144201,170.692343 133.622055,174.252627 L143.56398,169.48319 C140.675448,163.63895 134.831208,157.52601 124.016005,157.52601 C110.245095,157.52601 99.7657685,166.863358 99.7657685,180.701444 C99.7657685,194.472354 110.245095,203.876878 124.016005,203.876878 Z M172.098501,203.876878 C158.394766,203.876878 148.116964,194.338004 148.116964,180.701444 C148.116964,167.064884 158.394766,157.52601 172.098501,157.52601 C185.802236,157.52601 196.012862,167.064884 196.012862,180.701444 C196.012862,194.338004 185.802236,203.876878 172.098501,203.876878 Z M172.098501,193.666252 C179.48777,193.666252 184.257207,187.956362 184.257207,180.701444 C184.257207,173.37935 179.48777,167.736636 172.098501,167.736636 C164.709232,167.736636 159.872619,173.37935 159.872619,180.701444 C159.872619,187.956362 164.709232,193.666252 172.098501,193.666252 Z M224.950433,203.876878 C239.32592,203.876878 246.043437,196.017383 246.043437,184.866304 L246.043437,158.264936 L234.354957,158.264936 L234.354957,184.530429 C234.354957,189.837267 231.130549,193.666252 224.950433,193.666252 C218.703142,193.666252 215.478734,189.837267 215.478734,184.530429 L215.478734,158.264936 L203.723079,158.264936 L203.723079,184.93348 C203.723079,195.950208 210.574946,203.876878 224.950433,203.876878 Z M267.524564,203.070776 L255.970435,203.070776 L255.970435,158.264936 L278.406942,158.264936 C288.483218,158.264936 293.991582,165.049629 293.991582,173.177825 C293.991582,181.238845 288.483218,188.023537 278.406942,188.023537 L267.524564,188.023537 L267.524564,203.070776 Z M276.660387,177.947262 C279.750445,177.947262 282.235927,176.200707 282.235927,173.177825 C282.235927,170.087767 279.750445,168.341212 276.660387,168.341212 L267.524564,168.341212 L267.524564,177.947262 L276.660387,177.947262 Z M322.727628,203.876878 C309.023892,203.876878 298.746091,194.338004 298.746091,180.701444 C298.746091,167.064884 309.023892,157.52601 322.727628,157.52601 C336.431363,157.52601 346.641989,167.064884 346.641989,180.701444 C346.641989,194.338004 336.431363,203.876878 322.727628,203.876878 Z M322.727628,193.666252 C330.116896,193.666252 334.886334,187.956362 334.886334,180.701444 C334.886334,173.37935 330.116896,167.736636 322.727628,167.736636 C315.338359,167.736636 310.501746,173.37935 310.501746,180.701444 C310.501746,187.956362 315.338359,193.666252 322.727628,193.666252 Z M396.000812,203.070776 L396.000812,158.264936 L384.379507,158.264936 L384.379507,182.918224 L366.242211,158.264936 L354.352206,158.264936 L354.352206,203.070776 L365.906335,203.070776 L365.906335,177.14116 L384.849734,203.070776 L396.000812,203.070776 Z M412.712502,203.070776 L412.712502,182.649524 L436.022287,182.649524 L436.022287,177.678561 L412.712502,177.678561 L412.712502,163.235899 L436.492513,163.235899 L436.492513,158.264936 L407.136963,158.264936 L407.136963,203.070776 L412.712502,203.070776 Z M466.370536,203.876878 C453.069852,203.876878 444.135555,193.934953 444.135555,180.701444 C444.135555,167.467935 453.069852,157.52601 466.370536,157.52601 C479.604045,157.52601 488.605518,167.467935 488.605518,180.701444 C488.605518,193.934953 479.604045,203.876878 466.370536,203.876878 Z M466.370536,198.905915 C476.379637,198.905915 482.828454,191.113595 482.828454,180.701444 C482.828454,170.222117 476.379637,162.496972 466.370536,162.496972 C456.294261,162.496972 449.912619,170.222117 449.912619,180.701444 C449.912619,191.113595 456.294261,198.905915 466.370536,198.905915 Z M525.60411,203.070776 L525.60411,198.099813 L504.779807,198.099813 L504.779807,158.264936 L499.204268,158.264936 L499.204268,203.070776 L525.60411,203.070776 Z M561.729425,203.070776 L561.729425,198.099813 L540.905122,198.099813 L540.905122,158.264936 L535.329582,158.264936 L535.329582,203.070776 L561.729425,203.070776 Z M589.592193,203.876878 C576.291509,203.876878 567.357211,193.934953 567.357211,180.701444 C567.357211,167.467935 576.291509,157.52601 589.592193,157.52601 C602.825702,157.52601 611.827175,167.467935 611.827175,180.701444 C611.827175,193.934953 602.825702,203.876878 589.592193,203.876878 Z M589.592193,198.905915 C599.601294,198.905915 606.05011,191.113595 606.05011,180.701444 C606.05011,170.222117 599.601294,162.496972 589.592193,162.496972 C579.515918,162.496972 573.134276,170.222117 573.134276,180.701444 C573.134276,191.113595 579.515918,198.905915 589.592193,198.905915 Z M661.387524,203.070776 L674.150807,158.264936 L667.970691,158.264936 L658.095941,195.614332 L647.818139,158.264936 L643.183053,158.264936 L632.905251,195.614332 L622.963326,158.264936 L616.78321,158.264936 L629.546493,203.070776 L635.592258,203.070776 L645.467008,166.930534 L655.341759,203.070776 L661.387524,203.070776 Z" id="by-COUPONFOLLOW"></path>
                        </g>
                    </g>
                </g>
                <g id="Cently_Head_Outline">
                    <g id="Cently_Head_Fill">
                        <g id="Page-1">
                            <path d="M136.621916,213.290546 L136.621916,213.290546 C78.2738936,213.290546 30.973132,166.493193 30.973132,108.765584 L30.973132,106.500444 C30.973132,48.7728348 78.2738936,1.97548206 136.621916,1.97548206 C194.969938,1.97548206 242.270699,48.7728348 242.270699,106.500444 L242.270699,108.765584 C242.270699,166.493193 194.969938,213.290546 136.621916,213.290546 Z" id="Stroke-1" fill="#0D736C"></path>
                            <g id="Group-5" transform="translate(48.582225, 42.582613)">
                                <mask id="mask-2" fill="white">
                                    <use xlink:href="#path-1"></use>
                                </mask>
                                <g id="Clip-4"></g>
                                <path d="M30.4664736,233.206035 L168.977367,198.994925 L82.5386571,0.45155821 L17.972947,20.2401908 C5.99945275,23.9095548 -1.44206215,36.1262535 0.602642263,48.7556587 L30.4664736,233.206035 Z" id="Fill-3" fill="#FFB900" mask="url(#mask-2)"></path>
                            </g>
                            <g id="Group-10" transform="translate(0.000000, 8.121426)">
                                <path d="M71.2929912,79.0878304 C70.2391746,78.9213318 69.2757957,78.7965792 68.2229463,78.7019226 C67.1826712,78.6082368 66.1041897,78.5480449 64.9821821,78.517949 C62.7415523,78.4660092 60.3311705,78.5436762 57.766029,78.8135689 C52.639615,79.3426752 46.855956,80.607676 40.7134481,83.1760257 C36.9218362,84.4953934 32.922266,86.3331881 29.0053955,88.8767815 C28.0110647,89.4922922 27.0617108,90.1995471 26.0789869,90.8936957 C25.1335021,91.6305611 24.149811,92.3591744 23.2275401,93.1741921 C21.333185,94.7576276 19.5461944,96.5420262 17.8186897,98.4351587 C14.4154278,102.25249 11.3729495,106.625141 8.99642132,111.266713 C6.5942611,115.902946 4.75939178,120.766355 3.42652414,125.563747 C2.08978751,130.365993 1.24489644,135.097853 0.720648067,139.59914 C0.604578316,140.717544 0.456105759,141.848084 0.384045789,142.93348 C0.308116827,144.026643 0.232187865,145.10767 0.158677022,146.173649 C0.102093019,147.235259 0.0783954444,148.270172 0.0435745191,149.301201 C0.0290658002,149.815744 0.0140734573,150.32689 4.83623963e-05,150.833667 C0.00101561032,151.333648 0.00198285825,151.829746 0.00246648221,152.321475 C0.0039173541,160.220692 0.722582563,166.826753 1.43012442,171.643562 C2.01192405,174.945864 2.64015158,177.574406 3.11071769,179.685491 C3.63206432,181.754345 4.03975932,183.270793 4.33380269,184.236291 C4.97412082,186.262913 5.79579793,188.159929 6.7214542,189.946269 C7.68531676,191.699601 8.76573269,193.330122 9.94238979,194.813561 C11.1480643,196.271759 12.4446602,197.587729 13.809447,198.74351 C15.1752011,199.897836 16.6483197,200.860421 18.1407832,201.67204 C21.1194232,203.298193 24.3437442,204.181655 27.5201864,204.348639 C30.7043665,204.51271 33.8745216,203.932635 36.8787937,202.583171 C39.8869347,201.232251 42.4501417,199.245433 44.5340774,196.866397 C46.6252674,194.484448 48.1941435,191.715135 49.3350124,188.74049 C51.5456576,182.785374 51.8232577,176.112811 49.8631298,169.829067 C49.6396955,169.084435 49.241673,167.945158 48.6676114,166.40007 C48.1578717,164.865177 47.4174434,162.91525 46.6813678,160.581843 C45.4050841,157.220805 43.7443194,152.718062 42.2784552,147.582819 C42.1841485,147.260501 42.088391,146.936241 41.9921498,146.608584 C41.9089665,146.285295 41.8252996,145.959579 41.741149,145.630951 C41.5704297,144.971752 41.3972923,144.30236 41.2212532,143.623745 C41.0674608,142.95047 40.9107666,142.268456 40.7531052,141.578191 C40.5819023,140.88113 40.4779232,140.203486 40.3279998,139.497687 C39.7897263,136.70022 39.3800968,133.821688 39.189549,130.945583 C38.8050679,125.18512 39.2824048,119.463977 41.1085688,114.068549 C41.5801022,112.731707 42.0893582,111.380301 42.726291,110.090059 C43.0179162,109.423579 43.3801506,108.805156 43.7085313,108.149841 C44.0794708,107.530932 44.4180076,106.874161 44.8223172,106.268358 C46.3636268,103.777676 48.2265463,101.456404 50.2132736,99.3137663 C53.8027306,96.1551476 57.7079941,93.5897104 61.446891,91.5465836 C63.3151303,90.51604 65.145647,89.6170448 66.8886278,88.8151333 C67.7591509,88.4185463 68.6093619,88.0433178 69.4300717,87.6962435 C70.2314366,87.3685859 71.0003987,87.0525784 71.7359908,86.7511335 L71.2929912,79.0878304 Z" id="Fill-6" fill="#61372D"></path>
                                <path d="M94.1895391,96.9601768 C78.0011941,82.6738226 82.3557443,54.9933135 101.418266,49.2682868 L263.914467,0.469157057 C275.88416,49.8493329 244.646888,101.389136 192.246716,117.12495 L114.832544,140.373587" id="Fill-8" fill="#FFDBBB"></path>
                            </g>
                            <g id="Group-13" transform="translate(83.159639, 4.143604)">
                                <mask id="mask-4" fill="white">
                                    <use xlink:href="#path-3"></use>
                                </mask>
                                <g id="Clip-12"></g>
                                <path d="M4.44541904,76.8809012 C-11.7791494,62.682075 -7.41472499,35.1697386 11.6905381,29.4800764 L174.555696,-19.0217243 C186.552046,30.0575822 155.243942,81.2828751 102.725432,96.9232946 L25.1352338,120.03028" id="Fill-11" fill="#FFE5CD" mask="url(#mask-4)"></path>
                            </g>
                            <g id="Group-32" transform="translate(42.436281, 1.975482)">
                                <path d="M130.414002,28.6571581 L221.740065,0.486187465 C230.639581,36.1343986 218.708214,70.4629581 194.267457,78.1231788 C169.826701,85.7833996 141.668849,63.5675319 130.414002,28.6571581 Z" id="Fill-14" fill="#DD730C"></path>
                                <path d="M128.926048,135.61856 L88.6620075,41.046039 L22.981348,61.6309948 C10.8010901,65.4480194 3.23107178,78.1563357 5.31156554,91.2944698 L17.0293998,152.215395 L128.926048,135.61856 Z" id="Fill-16" fill="#FFB900"></path>
                                <path d="M83.5657297,55.4348834 C83.5657297,55.4348834 91.3015148,76.8291451 77.8844922,81.0337104 C64.4674696,85.2392823 58.2231054,63.376952 58.2231054,63.376952 C58.2231054,63.376952 67.1557751,77.5911408 76.0999763,74.7877617 C85.044658,71.9848859 83.5657297,55.4348834 83.5657297,55.4348834" id="Fill-18" fill="#61372D"></path>
                                <path d="M106.328157,100.096336 C104.395172,144.267927 84.3830322,179.170751 61.6306948,178.054432 C38.8778768,176.93761 22.0004117,140.223914 23.9338775,96.0528264" id="Fill-20" fill="#DD730C"></path>
                                <path d="M13.9176695,81.3400689 C18.4630438,101.506279 68.3953746,140.283505 123.969063,129.546613 L108.273587,88.3570727 L52.9877087,95.131486 L13.9176695,81.3400689 Z" id="Fill-22" fill="#FFB900"></path>
                                <path d="M50.7694603,65.7132186 C50.7694603,65.7132186 58.5047649,87.1079836 45.0877423,91.3125489 C31.6707197,95.5176175 25.4263555,73.6557905 25.4263555,73.6557905 C25.4263555,73.6557905 34.3590252,87.869476 43.3037069,85.0666002 C52.2479081,82.2632211 50.7694603,65.7132186 50.7694603,65.7132186" id="Fill-24" fill="#61372D"></path>
                                <path d="M136.482248,78.6717251 C137.047296,80.6501961 139.036018,81.7740642 140.924799,81.1821838 C142.813579,80.5903034 143.886019,78.5066428 143.32097,76.5286752 C142.756402,74.5507076 140.7672,73.4263361 138.878419,74.0182165 C136.990119,74.6106002 135.916719,76.6937575 136.482248,78.6717251" id="Fill-26" fill="#FFC266"></path>
                                <path d="M127.58302,93.1686174 C128.148068,95.1470883 130.13679,96.2709564 132.025571,95.6785727 C133.914351,95.0871956 134.987271,93.0035351 134.422222,91.0250641 C133.857174,89.0470965 131.867972,87.9232284 129.979191,88.5151088 C128.090891,89.1069892 127.017971,91.1901464 127.58302,93.1686174" id="Fill-28" fill="#FFC266"></path>
                                <path d="M142.284183,92.4637965 C142.849712,94.4422675 144.838433,95.5656323 146.727214,94.9737519 C148.615514,94.3823748 149.688434,92.2987142 149.123385,90.3202433 C148.558817,88.3422757 146.569135,87.2184075 144.680835,87.8102879 C142.792534,88.4021683 141.719134,90.4853256 142.284183,92.4637965" id="Fill-30" fill="#FFC266"></path>
                            </g>
                        </g>
                    </g>
                </g>
            </g>
        </g>
    </g>
</svg>