<?xml version="1.0" encoding="UTF-8"?>
<svg width="1000px" height="132px" viewBox="0 0 1000 132" version="1.1" xmlns="http://www.w3.org/2000/svg" xmlns:xlink="http://www.w3.org/1999/xlink">
    <!-- Generator: Sketch 47.1 (45422) - http://www.bohemiancoding.com/sketch -->
    <title>Couponfollow Logo Color Wide</title>
    <desc>Created with Sketch.</desc>
    <defs>
        <polygon id="path-1" points="0 0.411218839 999.525825 0.411218839 999.525825 132.02289 0 132.02289"></polygon>
        <polygon id="path-3" points="0 0.411218839 999.525825 0.411218839 999.525825 132.02289 0 132.02289"></polygon>
        <polygon id="path-5" points="0 0.411218839 999.525825 0.411218839 999.525825 132.02289 0 132.02289"></polygon>
        <polygon id="path-7" points="0 0.411218839 999.525825 0.411218839 999.525825 132.02289 0 132.02289"></polygon>
        <polygon id="path-9" points="0 0.411218839 999.525825 0.411218839 999.525825 132.02289 0 132.02289"></polygon>
        <polygon id="path-11" points="0 0.411218839 999.525825 0.411218839 999.525825 132.02289 0 132.02289"></polygon>
        <polygon id="path-13" points="0 0.411218839 999.525825 0.411218839 999.525825 132.02289 0 132.02289"></polygon>
        <polygon id="path-15" points="0 0.411218839 999.525825 0.411218839 999.525825 132.02289 0 132.02289"></polygon>
        <polygon id="path-17" points="0 0.411218839 999.525825 0.411218839 999.525825 132.02289 0 132.02289"></polygon>
        <polygon id="path-19" points="0 0.411218839 999.525825 0.411218839 999.525825 132.02289 0 132.02289"></polygon>
        <polygon id="path-21" points="0 0.411218839 999.525825 0.411218839 999.525825 132.02289 0 132.02289"></polygon>
        <polygon id="path-23" points="0 0.411218839 999.525825 0.411218839 999.525825 132.02289 0 132.02289"></polygon>
        <polygon id="path-25" points="0 0.411218839 999.525825 0.411218839 999.525825 132.02289 0 132.02289"></polygon>
        <polygon id="path-27" points="0 0.411218839 999.525825 0.411218839 999.525825 132.02289 0 132.02289"></polygon>
        <polygon id="path-29" points="0 0.411218839 999.525825 0.411218839 999.525825 132.02289 0 132.02289"></polygon>
        <polygon id="path-31" points="0 0.411218839 999.525825 0.411218839 999.525825 132.02289 0 132.02289"></polygon>
        <polygon id="path-33" points="0 0.411218839 999.525825 0.411218839 999.525825 132.02289 0 132.02289"></polygon>
    </defs>
    <g id="Approved-Designs" stroke="none" stroke-width="1" fill="none" fill-rule="evenodd">
        <g id="CouponFollow-Logo" transform="translate(-100.000000, -86.000000)">
            <g id="Couponfollow-Logo-Color-Wide" transform="translate(100.000000, 85.962007)">
                <polygon id="Fill-1" fill="#1FC99D" fill-rule="nonzero" points="520.004186 27.543005 569.304996 27.543005 569.304996 38.3818679 532.358066 38.3818679 532.358066 70.1993845 565.926509 70.1993845 565.926509 81.1551201 532.358066 81.1551201 532.358066 106.797861 520.004186 106.797861"></polygon>
                <g id="Group-36" transform="translate(0.000000, 0.000000)">
                    <path d="M651.946781,67.1684852 C651.946781,50.2673909 640.289809,37.5650574 623.741497,37.5650574 C607.188856,37.5650574 595.417176,50.2673909 595.417176,67.1684852 C595.417176,84.0695795 607.188856,96.7740773 623.741497,96.7740773 C640.289809,96.7740773 651.946781,84.0695795 651.946781,67.1684852 M582.829551,67.1684852 C582.829551,43.5082518 601.014081,26.4924491 623.741497,26.4924491 C646.35204,26.4924491 664.532241,43.5082518 664.532241,67.1684852 C664.532241,90.8287186 646.35204,107.846686 623.741497,107.846686 C601.014081,107.846686 582.829551,90.8287186 582.829551,67.1684852" id="Fill-2" fill="#1FC99D" fill-rule="nonzero"></path>
                    <polygon id="Fill-4" fill="#1FC99D" fill-rule="nonzero" points="682.37178 27.543005 694.72566 27.543005 694.72566 95.9589983 731.324137 95.9589983 731.324137 106.797861 682.37178 106.797861"></polygon>
                    <polygon id="Fill-6" fill="#1FC99D" fill-rule="nonzero" points="748.110523 27.543005 760.464402 27.543005 760.464402 95.9589983 797.062879 95.9589983 797.062879 106.797861 748.110523 106.797861"></polygon>
                    <path d="M874.69104,67.1684852 C874.69104,50.2673909 863.036232,37.5650574 846.485756,37.5650574 C829.933116,37.5650574 818.1636,50.2673909 818.1636,67.1684852 C818.1636,84.0695795 829.933116,96.7740773 846.485756,96.7740773 C863.036232,96.7740773 874.69104,84.0695795 874.69104,67.1684852 M805.57381,67.1684852 C805.57381,43.5082518 823.75834,26.4924491 846.485756,26.4924491 C869.096299,26.4924491 887.276501,43.5082518 887.276501,67.1684852 C887.276501,90.8287186 869.096299,107.846686 846.485756,107.846686 C823.75834,107.846686 805.57381,90.8287186 805.57381,67.1684852" id="Fill-8" fill="#1FC99D" fill-rule="nonzero"></path>
                    <path d="M894.860891,27.543005 L907.799134,27.543005 L921.784904,69.7340579 C923.302085,74.1622355 924.817101,81.0404117 924.817101,81.0404117 C924.817101,81.0404117 926.797445,74.2791082 928.660915,69.7340579 L946.845445,26.7270602 L948.360462,26.7270602 L966.659701,69.7340579 C968.523171,74.1622355 970.386642,81.0404117 970.386642,81.0404117 C970.386642,81.0404117 972.018531,74.1622355 973.535712,69.7340579 L987.523646,27.543005 L999.524743,27.543005 L972.137568,107.613806 L970.622552,107.613806 L950.923005,60.4102118 C949.291115,56.5620692 947.66139,50.7357475 947.66139,50.7357475 C947.66139,50.7357475 945.795755,56.5620692 944.163866,60.4102118 L923.998992,107.613806 L922.48614,107.613806 L894.860891,27.543005 Z" id="Fill-10" fill="#1FC99D" fill-rule="nonzero"></path>
                    <g id="Fill-12-Clipped">
                        <mask id="mask-2" fill="white">
                            <use xlink:href="#path-1"></use>
                        </mask>
                        <g id="path-1"></g>
                        <polygon id="Fill-12" fill="#1FC99D" fill-rule="nonzero" mask="url(#mask-2)" points="490.516982 128.997186 3.02570493 128.997186 3.02570493 3.43692377 490.516982 3.43692377"></polygon>
                    </g>
                    <g id="Fill-14-Clipped">
                        <mask id="mask-4" fill="white">
                            <use xlink:href="#path-3"></use>
                        </mask>
                        <g id="path-1"></g>
                        <polyline id="Fill-14" fill="#1BBC9B" fill-rule="nonzero" mask="url(#mask-4)" points="490.517631 3.43757307 490.517631 128.997835 3.02635423 128.997835"></polyline>
                    </g>
                    <g id="Shape-Clipped">
                        <mask id="mask-6" fill="white">
                            <use xlink:href="#path-5"></use>
                        </mask>
                        <g id="path-1"></g>
                        <polygon id="Shape" fill="#187F5D" fill-rule="nonzero" mask="url(#mask-6)" points="487.491926 115.846407 487.491926 128.996753 490.517631 125.971048 477.367285 125.971048 477.367285 132.022458 490.517631 132.022458 493.543336 132.022458 493.543336 128.996753 493.543336 115.846407"></polygon>
                    </g>
                    <g id="Shape-Clipped">
                        <mask id="mask-8" fill="white">
                            <use xlink:href="#path-7"></use>
                        </mask>
                        <g id="path-1"></g>
                        <path d="M463.802907,125.971481 L436.673285,125.971481 L436.673285,132.02289 L463.802907,132.02289 L463.802907,125.971481 L463.802907,125.971481 Z M423.109557,125.971481 L395.979935,125.971481 L395.979935,132.02289 L423.109557,132.02289 L423.109557,125.971481 L423.109557,125.971481 Z M382.416206,125.971481 L355.286584,125.971481 L355.286584,132.02289 L382.416206,132.02289 L382.416206,125.971481 L382.416206,125.971481 Z M341.722855,125.971481 L314.593234,125.971481 L314.593234,132.02289 L341.722855,132.02289 L341.722855,125.971481 L341.722855,125.971481 Z M301.029505,125.971481 L273.899883,125.971481 L273.899883,132.02289 L301.029505,132.02289 L301.029505,125.971481 L301.029505,125.971481 Z M260.336154,125.971481 L233.206532,125.971481 L233.206532,132.02289 L260.336154,132.02289 L260.336154,125.971481 L260.336154,125.971481 Z M219.642804,125.971481 L192.513182,125.971481 L192.513182,132.02289 L219.642804,132.02289 L219.642804,125.971481 L219.642804,125.971481 Z M178.949452,125.971481 L151.819831,125.971481 L151.819831,132.02289 L178.949452,132.02289 L178.949452,125.971481 L178.949452,125.971481 Z M138.256102,125.971481 L111.12648,125.971481 L111.12648,132.02289 L138.256102,132.02289 L138.256102,125.971481 L138.256102,125.971481 Z M97.5627509,125.971481 L70.4331293,125.971481 L70.4331293,132.02289 L97.5627509,132.02289 L97.5627509,125.971481 L97.5627509,125.971481 Z M56.8694001,125.971481 L29.7397787,125.971481 L29.7397787,132.02289 L56.8694001,132.02289 L56.8694001,125.971481 L56.8694001,125.971481 Z" id="Shape" fill="#187F5D" fill-rule="nonzero" mask="url(#mask-8)"></path>
                    </g>
                    <g id="Shape-Clipped">
                        <mask id="mask-10" fill="white">
                            <use xlink:href="#path-9"></use>
                        </mask>
                        <g id="path-1"></g>
                        <polygon id="Shape" fill="#187F5D" fill-rule="nonzero" mask="url(#mask-10)" points="16.1764834 125.971481 3.02613779 125.971481 6.05184273 128.997186 6.05184273 115.84684 0.000432861936 115.84684 0.000432861936 128.997186 0.000432861936 132.02289 3.02613779 132.02289 16.1764834 132.02289"></polygon>
                    </g>
                    <g id="Shape-Clipped">
                        <mask id="mask-12" fill="white">
                            <use xlink:href="#path-11"></use>
                        </mask>
                        <g id="path-1"></g>
                        <path d="M6.05140987,101.666283 L6.05140987,73.3051687 L0,73.3051687 L0,101.666283 L6.05140987,101.666283 L6.05140987,101.666283 Z M6.05140987,59.1267757 L6.05140987,30.7656615 L0,30.7656615 L0,59.1267757 L6.05140987,59.1267757 L6.05140987,59.1267757 Z" id="Shape" fill="#187F5D" fill-rule="nonzero" mask="url(#mask-12)"></path>
                    </g>
                    <g id="Shape-Clipped">
                        <mask id="mask-14" fill="white">
                            <use xlink:href="#path-13"></use>
                        </mask>
                        <g id="path-1"></g>
                        <polygon id="Shape" fill="#187F5D" fill-rule="nonzero" mask="url(#mask-14)" points="6.05140987 16.5883515 6.05140987 3.43800593 3.02570493 6.46371086 16.1760506 6.46371086 16.1760506 0.412300994 3.02570493 0.412300994 0 0.412300994 0 3.43800593 0 16.5883515"></polygon>
                    </g>
                    <g id="Shape-Clipped">
                        <mask id="mask-16" fill="white">
                            <use xlink:href="#path-15"></use>
                        </mask>
                        <g id="path-1"></g>
                        <path d="M29.7404286,6.463278 L56.87005,6.463278 L56.87005,0.411868132 L29.7404286,0.411868132 L29.7404286,6.463278 L29.7404286,6.463278 Z M70.4337792,6.463278 L97.5634008,6.463278 L97.5634008,0.411868132 L70.4337792,0.411868132 L70.4337792,6.463278 L70.4337792,6.463278 Z M111.12713,6.463278 L138.256751,6.463278 L138.256751,0.411868132 L111.12713,0.411868132 L111.12713,6.463278 L111.12713,6.463278 Z M151.820481,6.463278 L178.950102,6.463278 L178.950102,0.411868132 L151.820481,0.411868132 L151.820481,6.463278 L151.820481,6.463278 Z M192.513831,6.463278 L219.643453,6.463278 L219.643453,0.411868132 L192.513831,0.411868132 L192.513831,6.463278 L192.513831,6.463278 Z M233.207182,6.463278 L260.336803,6.463278 L260.336803,0.411868132 L233.207182,0.411868132 L233.207182,6.463278 L233.207182,6.463278 Z M273.900532,6.463278 L301.030154,6.463278 L301.030154,0.411868132 L273.900532,0.411868132 L273.900532,6.463278 L273.900532,6.463278 Z M314.593883,6.463278 L341.723505,6.463278 L341.723505,0.411868132 L314.593883,0.411868132 L314.593883,6.463278 L314.593883,6.463278 Z M355.287233,6.463278 L382.416855,6.463278 L382.416855,0.411868132 L355.287233,0.411868132 L355.287233,6.463278 L355.287233,6.463278 Z M395.980584,6.463278 L423.110206,6.463278 L423.110206,0.411868132 L395.980584,0.411868132 L395.980584,6.463278 L395.980584,6.463278 Z M436.673935,6.463278 L463.803557,6.463278 L463.803557,0.411868132 L436.673935,0.411868132 L436.673935,6.463278 L436.673935,6.463278 Z" id="Shape" fill="#187F5D" fill-rule="nonzero" mask="url(#mask-16)"></path>
                    </g>
                    <g id="Shape-Clipped">
                        <mask id="mask-18" fill="white">
                            <use xlink:href="#path-17"></use>
                        </mask>
                        <g id="path-1"></g>
                        <polygon id="Shape" fill="#187F5D" fill-rule="nonzero" mask="url(#mask-18)" points="477.366852 6.463278 490.517198 6.463278 487.491493 3.43757307 487.491493 16.5879187 493.542903 16.5879187 493.542903 3.43757307 493.542903 0.411868132 490.517198 0.411868132 477.366852 0.411868132"></polygon>
                    </g>
                    <g id="Shape-Clipped">
                        <mask id="mask-20" fill="white">
                            <use xlink:href="#path-19"></use>
                        </mask>
                        <g id="path-1"></g>
                        <path d="M487.491926,30.7682593 L487.491926,59.1293735 L493.543336,59.1293735 L493.543336,30.7682593 L487.491926,30.7682593 L487.491926,30.7682593 Z M487.491926,73.3077665 L487.491926,101.668881 L493.543336,101.668881 L493.543336,73.3077665 L487.491926,73.3077665 L487.491926,73.3077665 Z" id="Shape" fill="#187F5D" fill-rule="nonzero" mask="url(#mask-20)"></path>
                    </g>
                    <g id="Group-29-Clipped">
                        <mask id="mask-22" fill="white">
                            <use xlink:href="#path-21"></use>
                        </mask>
                        <g id="path-1"></g>
                        <g id="Group-29" mask="url(#mask-22)">
                            <g transform="translate(32.464645, 36.793265)" id="Group">
                                <g>
                                    <path d="M66.1670591,59.3947177 C64.7061501,61.4118543 62.9357448,63.3056253 60.8515145,65.0760306 C58.7672843,66.8464359 56.4558016,68.3939173 53.9192306,69.7141462 C51.3826597,71.0343752 48.638315,72.0754081 45.6883609,72.8415737 C42.7319139,73.6012464 39.6585942,73.9864936 36.4640731,73.9864936 C31.1809931,73.9864936 26.3545825,73.0818121 21.9761841,71.2767778 C17.6021142,69.4717436 13.8297224,66.9481585 10.6698303,63.7190084 C7.50777385,60.4898584 5.05777529,56.6698518 3.32199893,52.2546601 C1.58622256,47.8459612 0.718334383,43.0000719 0.718334383,37.7169919 C0.718334383,32.5767564 1.58622256,27.765496 3.32199893,23.285375 C5.05777529,18.8052539 7.50777385,14.9116608 10.6698303,11.6110886 C13.8297224,8.31268062 17.6129357,5.70468746 22.0281275,3.79793063 C26.4411549,1.88684518 31.319509,0.928055991 36.6696825,0.928055991 C43.1323112,0.928055991 48.7789951,2.1140977 53.6054057,4.47103094 C58.4361449,6.83878573 62.4487751,10.2410805 65.6432962,14.6887369 L54.9126488,25.0038369 C52.8262542,22.0885117 50.3567769,19.7402357 47.5085454,17.9676661 C44.6581495,16.1972608 41.258019,15.3098938 37.295168,15.3098938 C34.1699048,15.3098938 31.3563022,15.8834359 28.8565245,17.0348486 C26.3545825,18.1776041 24.2335591,19.7618788 22.4977827,21.7725225 C20.759842,23.7918235 19.4244629,26.1357708 18.4873169,28.806529 C17.5458421,31.4859444 17.0761869,34.3168614 17.0761869,37.3014445 C17.0761869,40.3596141 17.5458421,43.2078456 18.4873169,45.8483034 C19.4244629,48.4887612 20.759842,50.7829295 22.4977827,52.7243153 C24.2335591,54.6700297 26.3199536,56.1980323 28.7526377,57.3104875 C31.1809931,58.4229426 33.9296664,58.9791702 36.9835074,58.9791702 C39.4832851,58.9791702 41.6584163,58.7194531 43.4959152,58.1956901 C45.3399071,57.6762558 46.9717966,56.9836767 48.393748,56.1092956 C49.8200281,55.2435717 51.0861493,54.2371677 52.2007687,53.0922479 C53.3110596,51.9473281 54.3888858,50.7829295 55.4299188,49.5990521 L66.1670591,59.3947177 Z" id="Fill-23" fill="#187F5D" fill-rule="nonzero"></path>
                                    <path d="M105.978454,59.1875933 C109.032294,59.1875933 111.780968,58.598901 114.213652,57.4171879 C116.642007,56.2376392 118.708923,54.6382143 120.412235,52.623242 C122.113382,50.6082697 123.416297,48.2816368 124.318814,45.6390147 C125.223495,43.0007212 125.673672,40.1871186 125.673672,37.1982069 C125.673672,34.2092952 125.223495,31.3956927 124.318814,28.7552348 C123.416297,26.1191057 122.113382,23.8054586 120.412235,21.8229509 C118.708923,19.8447719 116.642007,18.2821403 114.213652,17.1350562 C111.780968,15.9901363 109.032294,15.4165943 105.978454,15.4165943 C102.91812,15.4165943 100.158625,15.9901363 97.6934761,17.1350562 C95.2239987,18.2821403 93.1397685,19.8447719 91.4386211,21.8229509 C89.7353094,23.8054586 88.4345593,26.1191057 87.5320421,28.7552348 C86.6273607,31.3956927 86.17502,34.2092952 86.17502,37.1982069 C86.17502,40.1871186 86.6273607,43.0007212 87.5320421,45.6390147 C88.4345593,48.2816368 89.7353094,50.6082697 91.4386211,52.623242 C93.1397685,54.6382143 95.2239987,56.2376392 97.6934761,57.4171879 C100.158625,58.598901 102.91812,59.1875933 105.978454,59.1875933 M105.978454,73.9871429 C100.833889,73.9871429 96.0594223,73.0478324 91.6485591,71.171376 C87.2355317,69.2992481 83.4133608,66.7237196 80.1842108,63.4621049 C76.9550607,60.1939973 74.4141612,56.3220472 72.5744979,51.8397619 C70.7326704,47.3574765 69.8150031,42.5505447 69.8150031,37.4059806 C69.8150031,32.1964872 70.7326704,27.365748 72.5744979,22.9180916 C74.4141612,18.4747639 76.9550607,14.6157997 80.1842108,11.3520207 C83.4133608,8.0860774 87.2355317,5.5148775 91.6485591,3.64058531 C96.0594223,1.76629313 100.833889,0.826982729 105.978454,0.826982729 C111.116525,0.826982729 115.89532,1.76629313 120.306184,3.64058531 C124.719211,5.5148775 128.541382,8.0860774 131.770532,11.3520207 C134.999682,14.6157997 137.536253,18.4747639 139.380245,22.9180916 C141.217744,27.365748 142.13974,32.1964872 142.13974,37.4059806 C142.13974,42.5505447 141.217744,47.3574765 139.380245,51.8397619 C137.536253,56.3220472 134.999682,60.1939973 131.770532,63.4621049 C128.541382,66.7237196 124.719211,69.2992481 120.306184,71.171376 C115.89532,73.0478324 111.116525,73.9871429 105.978454,73.9871429" id="Fill-24" fill="#187F5D" fill-rule="nonzero"></path>
                                    <path d="M152.458302,2.69997633 L168.298885,2.69997633 L168.298885,43.8673108 C168.298885,46.1636433 168.523973,48.2283948 168.978478,50.0702223 C169.42649,51.9098855 170.177506,53.4898316 171.218539,54.8078962 C172.257407,56.1302894 173.62958,57.1540079 175.335056,57.8855446 C177.036203,58.6170812 179.137748,58.9785209 181.637526,58.9785209 C184.07021,58.9785209 186.13929,58.6170812 187.842601,57.8855446 C189.541585,57.1540079 190.915921,56.1302894 191.956954,54.8078962 C192.997987,53.4898316 193.74251,51.9098855 194.197015,50.0702223 C194.649355,48.2283948 194.874444,46.1636433 194.874444,43.8673108 L194.874444,2.69997633 L210.821077,2.69997633 L210.821077,45.8498184 C210.821077,50.0182789 210.141484,53.8382855 208.784462,57.3098382 C207.433933,60.7857195 205.488218,63.7573167 202.951647,66.2224654 C200.415076,68.6897785 197.339592,70.6181784 193.727359,72.0033366 C190.112962,73.3949877 186.085182,74.0875668 181.637526,74.0875668 C177.192034,74.0875668 173.159925,73.4123022 169.55202,72.0596086 C165.937623,70.7025865 162.864303,68.7741866 160.327732,66.2744089 C157.791162,63.7746312 155.843283,60.7857195 154.490589,57.3098382 C153.135731,53.8382855 152.458302,50.0182789 152.458302,45.8498184 L152.458302,2.69997633 Z" id="Fill-25" fill="#187F5D" fill-rule="nonzero"></path>
                                    <path d="M248.334624,35.0103063 C251.256442,35.0103063 253.563596,34.1251036 255.266908,32.352534 C256.965891,30.5778 257.820793,28.2706459 257.820793,25.4202501 C257.820793,22.5049249 256.948577,20.1241843 255.214965,18.2823567 C253.477024,16.4426935 251.148227,15.5206976 248.230737,15.5206976 L239.164444,15.5206976 L239.164444,35.0103063 L248.334624,35.0103063 Z M223.843296,2.69932703 L249.170048,2.69932703 C253.477024,2.69932703 257.158515,3.32481253 260.21452,4.57794784 C263.27269,5.82891883 265.791946,7.47812281 267.770125,9.52772407 C269.750468,11.581654 271.209213,13.9559017 272.148524,16.6656174 C273.089998,19.3753331 273.553161,22.1911 273.553161,25.1085895 C273.553161,28.8615024 272.912525,32.1425959 271.626925,34.9583628 C270.343489,37.7698011 268.605549,40.1137485 266.417432,41.9945336 C264.22715,43.8688258 261.710058,45.2929415 258.859662,46.2647166 C256.011431,47.2408203 253.026848,47.7234613 249.89942,47.7234613 L239.164444,47.7234613 L239.164444,72.2147897 L223.843296,72.2147897 L223.843296,2.69932703 Z" id="Fill-26" fill="#187F5D" fill-rule="nonzero"></path>
                                    <path d="M317.535613,59.1875933 C320.589454,59.1875933 323.338127,58.598901 325.770811,57.4171879 C328.199166,56.2376392 330.266082,54.6382143 331.969394,52.623242 C333.670541,50.6082697 334.973456,48.2816368 335.875973,45.6390147 C336.780654,43.0007212 337.230831,40.1871186 337.230831,37.1982069 C337.230831,34.2092952 336.780654,31.3956927 335.875973,28.7552348 C334.973456,26.1191057 333.670541,23.8054586 331.969394,21.8229509 C330.266082,19.8447719 328.199166,18.2821403 325.770811,17.1350562 C323.338127,15.9901363 320.589454,15.4165943 317.535613,15.4165943 C314.475279,15.4165943 311.71362,15.9901363 309.250635,17.1350562 C306.781158,18.2821403 304.696928,19.8447719 302.99578,21.8229509 C301.292468,23.8054586 299.989554,26.1191057 299.087037,28.7552348 C298.182355,31.3956927 297.732179,34.2092952 297.732179,37.1982069 C297.732179,40.1871186 298.182355,43.0007212 299.087037,45.6390147 C299.989554,48.2816368 301.292468,50.6082697 302.99578,52.623242 C304.696928,54.6382143 306.781158,56.2376392 309.250635,57.4171879 C311.71362,58.598901 314.475279,59.1875933 317.535613,59.1875933 M317.535613,73.9871429 C312.391048,73.9871429 307.618746,73.0478324 303.207883,71.171376 C298.792691,69.2992481 294.972684,66.7237196 291.74137,63.4621049 C288.51222,60.1939973 285.973485,56.3220472 284.131657,51.8397619 C282.291994,47.3574765 281.372162,42.5505447 281.372162,37.4059806 C281.372162,32.1964872 282.291994,27.365748 284.131657,22.9180916 C285.973485,18.4747639 288.51222,14.6157997 291.74137,11.3520207 C294.972684,8.0860774 298.792691,5.5148775 303.207883,3.64058531 C307.618746,1.76629313 312.391048,0.826982729 317.535613,0.826982729 C322.675848,0.826982729 327.45248,1.76629313 331.863343,3.64058531 C336.27637,5.5148775 340.098541,8.0860774 343.327691,11.3520207 C346.556841,14.6157997 349.093412,18.4747639 350.937404,22.9180916 C352.774903,27.365748 353.696899,32.1964872 353.696899,37.4059806 C353.696899,42.5505447 352.774903,47.3574765 350.937404,51.8397619 C349.093412,56.3220472 346.556841,60.1939973 343.327691,63.4621049 C340.098541,66.7237196 336.27637,69.2992481 331.863343,71.171376 C327.45248,73.0478324 322.675848,73.9871429 317.535613,73.9871429" id="Fill-27" fill="#187F5D" fill-rule="nonzero"></path>
                                    <polygon id="Fill-28" fill="#187F5D" fill-rule="nonzero" points="364.531 2.69997633 379.540488 2.69997633 409.659021 47.8279975 409.659021 2.69997633 425.187943 2.69997633 425.187943 72.2154389 410.909992 72.2154389 380.062086 26.2584872 380.062086 72.2154389 364.531 72.2154389"></polygon>
                                </g>
                            </g>
                        </g>
                    </g>
                    <g id="Fill-30-Clipped">
                        <mask id="mask-24" fill="white">
                            <use xlink:href="#path-23"></use>
                        </mask>
                        <g id="path-1"></g>
                        <path d="M98.6317043,87.6194802 C97.1707953,89.6366169 95.40039,91.5303878 93.3161597,93.3007931 C91.2319295,95.0711985 88.9204468,96.6186799 86.3838758,97.9389088 C83.8473049,99.2569734 81.1029602,100.300171 78.1530061,101.066336 C75.1965591,101.826009 72.1232394,102.211256 68.9287183,102.211256 C63.6456383,102.211256 58.8192277,101.306575 54.4408293,99.4993761 C50.0667594,97.6965061 46.2943676,95.172921 43.1344755,91.943771 C39.9724191,88.7146209 37.5224205,84.89245 35.7866441,80.4794226 C34.0508678,76.0685595 33.1829796,71.2248344 33.1829796,65.9417545 C33.1829796,60.801519 34.0508678,55.9880943 35.7866441,51.5101375 C37.5224205,47.0278522 39.9724191,43.1364234 43.1344755,39.8358511 C46.2943676,36.5374432 50.077581,33.92945 54.4927727,32.0205289 C58.9058001,30.1116077 63.7841542,29.1528185 69.1343277,29.1528185 C75.5969564,29.1528185 81.2436403,30.3366959 86.0700509,32.6957935 C90.9007901,35.0635483 94.9134203,38.4658431 98.1079414,42.9134995 L87.377294,53.2264351 C85.2908994,50.31111 82.8214221,47.9649983 79.9731906,46.1924286 C77.1227947,44.4220233 73.7226642,43.5346564 69.7598132,43.5346564 C66.63455,43.5346564 63.8209474,44.1081984 61.3211697,45.2574469 C58.8192277,46.4023667 56.6982043,47.9866414 54.9624279,49.9972851 C53.2244872,52.0144217 51.8891082,54.3605334 50.9519621,57.0312915 C50.0104874,59.7107069 49.5408322,62.5394597 49.5408322,65.5240427 C49.5408322,68.5843766 50.0104874,71.4326081 50.9519621,74.0730659 C51.8891082,76.7135238 53.2244872,79.007692 54.9624279,80.9490778 C56.6982043,82.8926279 58.7845988,84.4227948 61.2172829,85.53525 C63.6456383,86.6477052 66.3943116,87.2039328 69.4481526,87.2039328 C71.9479303,87.2039328 74.1230615,86.9442156 75.9605604,86.4182884 C77.8045523,85.9010183 79.4364418,85.2062749 80.8583932,84.3340581 C82.2846733,83.4683343 83.5507945,82.4619303 84.665414,81.3170104 C85.7757048,80.1720906 86.853531,79.007692 87.894564,77.8216503 L98.6317043,87.6194802 Z" id="Fill-30" fill="#FFFFFF" fill-rule="nonzero" mask="url(#mask-24)"></path>
                    </g>
                    <g id="Fill-31-Clipped">
                        <mask id="mask-26" fill="white">
                            <use xlink:href="#path-25"></use>
                        </mask>
                        <g id="path-1"></g>
                        <path d="M138.443099,87.4123558 C141.49694,87.4123558 144.245613,86.8214993 146.678297,85.6419505 C149.106653,84.4602374 151.173568,82.8629768 152.87688,80.8480045 C154.578027,78.8308679 155.880942,76.5063993 156.783459,73.8637772 C157.68814,71.2254837 158.138317,68.4118811 158.138317,65.4229694 C158.138317,62.4340578 157.68814,59.6204552 156.783459,56.9799974 C155.880942,54.3438682 154.578027,52.0302211 152.87688,50.0477135 C151.173568,48.0695344 149.106653,46.5069028 146.678297,45.3598187 C144.245613,44.2148989 141.49694,43.6413568 138.443099,43.6413568 C135.382765,43.6413568 132.62327,44.2148989 130.158121,45.3598187 C127.688644,46.5069028 125.604414,48.0695344 123.903266,50.0477135 C122.199955,52.0302211 120.899204,54.3438682 119.996687,56.9799974 C119.092006,59.6204552 118.639665,62.4340578 118.639665,65.4229694 C118.639665,68.4118811 119.092006,71.2254837 119.996687,73.8637772 C120.899204,76.5063993 122.199955,78.8308679 123.903266,80.8480045 C125.604414,82.8629768 127.688644,84.4602374 130.158121,85.6419505 C132.62327,86.8214993 135.382765,87.4123558 138.443099,87.4123558 M138.443099,102.211905 C133.298535,102.211905 128.524067,101.270431 124.113204,99.3961385 C119.700177,97.5218463 115.878006,94.9484821 112.648856,91.6868674 C109.419706,88.4187598 106.878806,84.5468098 105.039143,80.0645244 C103.197316,75.5800748 102.279648,70.773143 102.279648,65.6307432 C102.279648,60.4212498 103.197316,55.5905106 105.039143,51.1428542 C106.878806,46.6973621 109.419706,42.8405622 112.648856,39.5767832 C115.878006,36.3108399 119.700177,33.73964 124.113204,31.8631835 C128.524067,29.9910557 133.298535,29.0517453 138.443099,29.0517453 C143.58117,29.0517453 148.359966,29.9910557 152.770829,31.8631835 C157.183856,33.73964 161.006027,36.3108399 164.235177,39.5767832 C167.464327,42.8405622 170.000898,46.6973621 171.84489,51.1428542 C173.682389,55.5905106 174.604385,60.4212498 174.604385,65.6307432 C174.604385,70.773143 173.682389,75.5800748 171.84489,80.0645244 C170.000898,84.5468098 167.464327,88.4187598 164.235177,91.6868674 C161.006027,94.9484821 157.183856,97.5218463 152.770829,99.3961385 C148.359966,101.270431 143.58117,102.211905 138.443099,102.211905" id="Fill-31" fill="#FFFFFF" fill-rule="nonzero" mask="url(#mask-26)"></path>
                    </g>
                    <g id="Fill-32-Clipped">
                        <mask id="mask-28" fill="white">
                            <use xlink:href="#path-27"></use>
                        </mask>
                        <g id="path-1"></g>
                        <path d="M184.922948,30.9247389 L200.76353,30.9247389 L200.76353,72.0920733 C200.76353,74.3862416 200.988618,76.4531573 201.443123,78.2928205 C201.891136,80.1324838 202.642151,81.7145941 203.683184,83.0326587 C204.722053,84.3550519 206.094225,85.3787704 207.799701,86.1103071 C209.500848,86.8396795 211.602393,87.2032835 214.102171,87.2032835 C216.534855,87.2032835 218.603935,86.8396795 220.307247,86.1103071 C222.00623,85.3787704 223.380566,84.3550519 224.421599,83.0326587 C225.462632,81.7145941 226.207155,80.1324838 226.66166,78.2928205 C227.114001,76.4531573 227.339089,74.3862416 227.339089,72.0920733 L227.339089,30.9247389 L243.285723,30.9247389 L243.285723,74.074581 C243.285723,78.2430414 242.606129,82.063048 241.249107,85.5346007 C239.898578,89.0104821 237.952863,91.9799149 235.416293,94.447228 C232.879722,96.914541 229.804238,98.8429409 226.192005,100.228099 C222.577608,101.61975 218.549827,102.312329 214.102171,102.312329 C209.656679,102.312329 205.62457,101.637065 202.016666,100.282207 C198.402268,98.927349 195.328949,96.9989491 192.792378,94.4970071 C190.255807,91.9993937 188.307928,89.0104821 186.955234,85.5346007 C185.600377,82.063048 184.922948,78.2430414 184.922948,74.074581 L184.922948,30.9247389 Z" id="Fill-32" fill="#FFFFFF" fill-rule="nonzero" mask="url(#mask-28)"></path>
                    </g>
                    <g id="Fill-33-Clipped">
                        <mask id="mask-30" fill="white">
                            <use xlink:href="#path-29"></use>
                        </mask>
                        <g id="path-1"></g>
                        <path d="M280.799269,63.2350688 C283.721087,63.2350688 286.028242,62.3498661 287.731553,60.5794608 C289.430536,58.8025626 290.285439,56.4954084 290.285439,53.6450126 C290.285439,50.7296875 289.413222,48.3489468 287.67961,46.5071193 C285.941669,44.667456 283.612872,43.7454601 280.695383,43.7454601 L271.629089,43.7454601 L271.629089,63.2350688 L280.799269,63.2350688 Z M256.307941,30.9240896 L281.634693,30.9240896 C285.941669,30.9240896 289.62316,31.5495751 292.679165,32.8027104 C295.737335,34.0536814 298.256591,35.700721 300.23477,37.7524866 C302.215114,39.8042522 303.673858,42.1784999 304.613169,44.8903799 C305.554643,47.6000957 306.017806,50.4158626 306.017806,53.333352 C306.017806,57.0841007 305.37717,60.3673585 304.09157,63.1831254 C302.808135,65.9945636 301.070194,68.338511 298.882077,70.2171318 C296.691795,72.0935883 294.174703,73.5177041 291.324307,74.4894791 C288.476076,75.4634185 285.491493,75.9482239 282.364065,75.9482239 L271.629089,75.9482239 L271.629089,100.437388 L256.307941,100.437388 L256.307941,30.9240896 Z" id="Fill-33" fill="#FFFFFF" fill-rule="nonzero" mask="url(#mask-30)"></path>
                    </g>
                    <g id="Fill-34-Clipped">
                        <mask id="mask-32" fill="white">
                            <use xlink:href="#path-31"></use>
                        </mask>
                        <g id="path-1"></g>
                        <path d="M350.000258,87.4123558 C353.054099,87.4123558 355.802772,86.8214993 358.235456,85.6419505 C360.663812,84.4602374 362.730727,82.8629768 364.434039,80.8480045 C366.135186,78.8308679 367.438101,76.5063993 368.340618,73.8637772 C369.245299,71.2254837 369.695476,68.4118811 369.695476,65.4229694 C369.695476,62.4340578 369.245299,59.6204552 368.340618,56.9799974 C367.438101,54.3438682 366.135186,52.0302211 364.434039,50.0477135 C362.730727,48.0695344 360.663812,46.5069028 358.235456,45.3598187 C355.802772,44.2148989 353.054099,43.6413568 350.000258,43.6413568 C346.939924,43.6413568 344.178265,44.2148989 341.71528,45.3598187 C339.245803,46.5069028 337.161573,48.0695344 335.460425,50.0477135 C333.757114,52.0302211 332.454199,54.3438682 331.551682,56.9799974 C330.647001,59.6204552 330.196824,62.4340578 330.196824,65.4229694 C330.196824,68.4118811 330.647001,71.2254837 331.551682,73.8637772 C332.454199,76.5063993 333.757114,78.8308679 335.460425,80.8480045 C337.161573,82.8629768 339.245803,84.4602374 341.71528,85.6419505 C344.178265,86.8214993 346.939924,87.4123558 350.000258,87.4123558 M350.000258,102.211905 C344.855694,102.211905 340.083391,101.270431 335.672528,99.3961385 C331.257336,97.5218463 327.437329,94.9484821 324.206015,91.6868674 C320.976865,88.4187598 318.43813,84.5468098 316.596302,80.0645244 C314.756639,75.5800748 313.836807,70.773143 313.836807,65.6307432 C313.836807,60.4212498 314.756639,55.5905106 316.596302,51.1428542 C318.43813,46.6973621 320.976865,42.8405622 324.206015,39.5767832 C327.437329,36.3108399 331.257336,33.73964 335.672528,31.8631835 C340.083391,29.9910557 344.855694,29.0517453 350.000258,29.0517453 C355.140493,29.0517453 359.917125,29.9910557 364.327988,31.8631835 C368.741015,33.73964 372.563186,36.3108399 375.792336,39.5767832 C379.021486,42.8405622 381.558057,46.6973621 383.402049,51.1428542 C385.239548,55.5905106 386.161544,60.4212498 386.161544,65.6307432 C386.161544,70.773143 385.239548,75.5800748 383.402049,80.0645244 C381.558057,84.5468098 379.021486,88.4187598 375.792336,91.6868674 C372.563186,94.9484821 368.741015,97.5218463 364.327988,99.3961385 C359.917125,101.270431 355.140493,102.211905 350.000258,102.211905" id="Fill-34" fill="#FFFFFF" fill-rule="nonzero" mask="url(#mask-32)"></path>
                    </g>
                    <g id="Fill-35-Clipped">
                        <mask id="mask-34" fill="white">
                            <use xlink:href="#path-33"></use>
                        </mask>
                        <g id="path-1"></g>
                        <polygon id="Fill-35" fill="#FFFFFF" fill-rule="nonzero" mask="url(#mask-34)" points="396.995645 30.9247389 412.005133 30.9247389 442.123666 76.0505957 442.123666 30.9247389 457.652588 30.9247389 457.652588 100.438037 443.374637 100.438037 412.526732 54.4810854 412.526732 100.438037 396.995645 100.438037"></polygon>
                    </g>
                </g>
            </g>
        </g>
    </g>
</svg>